<svg xmlns="http://www.w3.org/2000/svg" xmlns:xlink="http://www.w3.org/1999/xlink" width="500" zoomAndPan="magnify" viewBox="0 0 375 374.999991" height="500" preserveAspectRatio="xMidYMid meet" version="1.0"><defs><clipPath id="id1"><path d="M 0 1.363281 L 375 1.363281 L 375 373.363281 L 0 373.363281 Z M 0 1.363281 " clip-rule="nonzero"/></clipPath></defs><g clip-path="url(#id1)"><path fill="#000000" d="M 209.863281 110.632812 L 228.980469 123.835938 L 232.925781 121.582031 L 232.929688 121.582031 C 234.75 123.539062 239.085938 129.558594 245.9375 139.648438 C 247.328125 141.53125 248.734375 143.253906 250.15625 144.8125 C 251.4375 146.230469 252.972656 147.785156 254.753906 149.46875 C 264.050781 157.777344 269.113281 162.464844 269.941406 163.527344 C 270.648438 164.175781 271.878906 165.503906 273.632812 167.511719 L 273.628906 167.511719 L 248.152344 171.09375 L 249.03125 177.753906 L 250.246094 177.582031 L 250.25 177.582031 C 251.4375 181.878906 252.589844 186.019531 253.710938 190.003906 L 253.707031 190.003906 L 216.445312 195.253906 C 218.5625 192.625 220.210938 190.125 221.390625 187.757812 C 225.316406 179.800781 225.46875 172.605469 221.84375 166.171875 C 218.988281 161.296875 213.085938 157.285156 204.136719 154.140625 L 204.132812 154.140625 L 204.898438 152.628906 C 195.917969 148.699219 185.285156 145.085938 173 141.792969 C 170.886719 141.207031 168.390625 140.546875 165.523438 139.804688 L 165.519531 139.804688 C 177.542969 132.113281 185.738281 127.039062 190.101562 124.578125 C 193.183594 122.703125 197.800781 120.488281 203.953125 117.933594 C 205.300781 117.253906 207.269531 114.820312 209.863281 110.632812 Z M 163.78125 181.539062 L 190.136719 181.769531 L 190.242188 181.558594 L 194.34375 181.675781 C 187.238281 186.140625 180.683594 192.277344 174.683594 200.09375 Z M 126.445312 182.679688 C 130.019531 187.859375 134.789062 195.609375 140.75 205.921875 L 140.746094 205.921875 L 134.984375 206.734375 C 134.871094 206.691406 134.753906 206.652344 134.628906 206.613281 L 134.625 206.613281 L 126.441406 182.679688 Z M 144.34375 212.195312 C 145.84375 214.835938 147.410156 217.613281 149.039062 220.53125 L 150.992188 219.269531 L 150.996094 219.269531 C 152.664062 224.003906 153.398438 226.785156 153.203125 227.613281 C 151.351562 231.082031 149.484375 236.734375 147.609375 244.574219 L 136.894531 213.246094 L 144.339844 212.195312 Z M 131.863281 219.296875 L 142.453125 250.269531 L 142.449219 250.269531 C 138.757812 256.511719 136.875 260.042969 136.796875 260.863281 C 136.511719 261.636719 136.339844 262.355469 136.285156 263.023438 C 133.304688 258.027344 129.671875 253.300781 125.382812 248.839844 C 122.808594 246.316406 120.144531 244.011719 117.394531 241.925781 L 117.390625 241.925781 Z M 255.554688 196.527344 C 256.390625 199.476562 257.210938 202.335938 258.007812 205.101562 L 258.003906 205.101562 L 203.183594 264.453125 C 202.777344 264.3125 202.324219 264.203125 201.820312 264.125 C 201.917969 264.023438 199.273438 263.878906 193.890625 263.691406 C 192.589844 263.582031 191.515625 263.433594 190.660156 263.238281 C 189.039062 262.890625 187.617188 262.28125 186.386719 261.40625 C 185.007812 260.421875 183.800781 259.03125 182.761719 257.234375 C 182.558594 257.15625 181.070312 253.867188 178.289062 247.363281 C 177.617188 245.980469 176.945312 244.84375 176.277344 243.957031 C 175.667969 243.101562 174.976562 242.445312 174.207031 241.996094 L 174.203125 241.996094 C 175.722656 240.304688 177.726562 238.316406 180.214844 236.027344 C 180.902344 235.269531 181.402344 234.402344 181.722656 233.421875 C 182.058594 232.480469 182.132812 231.179688 181.9375 229.527344 L 181.933594 229.527344 C 182.902344 228.335938 183.898438 227.167969 184.925781 226.019531 C 186.621094 224.125 188.535156 222.160156 190.679688 220.128906 C 199.714844 211.996094 205.921875 206.300781 209.292969 203.042969 L 209.289062 203.042969 L 255.550781 196.527344 Z M 103.929688 242.335938 C 105.222656 243.027344 106.492188 243.761719 107.746094 244.542969 L 107.742188 244.542969 L 93.832031 266.292969 L 103.925781 242.335938 Z M 268.285156 238.988281 C 270.167969 244.777344 271.851562 249.636719 273.335938 253.570312 C 275.332031 259.015625 277.417969 264.121094 279.589844 268.890625 L 258.570312 246.0625 L 258.566406 246.0625 C 261.667969 243.371094 264.90625 241.011719 268.28125 238.988281 Z M 138.78125 267.558594 C 139.660156 268.078125 140.859375 268.574219 142.378906 269.046875 L 142.375 269.046875 C 142.082031 270.503906 141.78125 272.023438 141.46875 273.601562 C 140.667969 271.546875 139.769531 269.535156 138.777344 267.558594 Z M 90.628906 237.070312 C 94.761719 238.191406 98.730469 239.703125 102.535156 241.613281 L 102.53125 241.613281 L 88.847656 274.085938 L 83.167969 282.96875 L 90.625 237.070312 Z M 113.261719 248.386719 C 114.835938 249.605469 116.378906 250.902344 117.886719 252.28125 L 117.882812 252.28125 L 91.046875 283.117188 L 113.257812 248.386719 Z M 257.394531 247.101562 L 281.847656 273.652344 L 281.839844 273.652344 C 283.375 276.777344 284.953125 279.742188 286.570312 282.550781 C 286.921875 283.164062 287.289062 283.796875 287.671875 284.445312 L 248.109375 257.75 L 248.105469 257.75 C 250.300781 254.632812 252.804688 251.640625 255.609375 248.765625 C 256.199219 248.199219 256.792969 247.644531 257.390625 247.101562 Z M 39.9375 243.835938 L 66.777344 285.386719 L 27.035156 253.769531 L 27.03125 253.769531 C 27.042969 253.757812 27.058594 253.742188 27.070312 253.730469 C 31.117188 249.832031 35.40625 246.535156 39.9375 243.835938 Z M 54.039062 237.601562 L 68.695312 285.46875 L 41.292969 243.050781 C 45.351562 240.765625 49.597656 238.949219 54.039062 237.601562 Z M 297.757812 229.917969 L 299.386719 286.335938 L 280.015625 233.476562 L 280.011719 233.476562 C 285.613281 231.515625 291.527344 230.328125 297.753906 229.917969 Z M 73.6875 234.726562 C 79.054688 234.828125 84.195312 235.480469 89.105469 236.679688 L 81.039062 286.292969 L 80.878906 286.546875 C 80.78125 286.515625 80.683594 286.492188 80.585938 286.464844 L 80.582031 286.464844 L 73.683594 234.726562 Z M 302.027344 229.757812 L 302.171875 229.757812 C 308.21875 229.871094 313.972656 230.675781 319.441406 232.179688 L 319.433594 232.179688 L 302.832031 287.246094 C 302.246094 287.078125 301.625 286.980469 300.976562 286.949219 L 300.96875 286.949219 L 299.324219 229.832031 L 299.316406 229.832031 C 300.214844 229.792969 301.117188 229.765625 302.027344 229.757812 Z M 72.105469 234.75 L 78.957031 286.136719 C 78.421875 286.0625 77.871094 286.015625 77.308594 285.996094 L 77.285156 285.996094 C 77.253906 285.996094 77.222656 285.996094 77.191406 285.996094 C 74.910156 285.996094 72.816406 286.457031 70.914062 287.375 L 55.542969 237.167969 C 60.800781 235.714844 66.320312 234.90625 72.105469 234.75 Z M 278.542969 234.011719 L 298.113281 287.417969 L 298.109375 287.417969 C 297.914062 287.492188 297.722656 287.570312 297.53125 287.660156 C 291.210938 277.820312 286.191406 268.132812 282.484375 258.601562 C 280.246094 253.320312 277.523438 245.714844 274.316406 235.789062 L 274.3125 235.789062 C 275.703125 235.144531 277.109375 234.550781 278.539062 234.011719 Z M 159.679688 272.300781 C 162.664062 272.757812 165.464844 273.175781 168.085938 273.550781 L 168.082031 273.550781 L 166.449219 287.210938 L 166.445312 287.210938 C 165.050781 287.273438 163.695312 287.460938 162.378906 287.773438 L 158.398438 276.132812 L 158.394531 276.132812 C 158.835938 274.808594 159.261719 273.527344 159.679688 272.300781 Z M 25.945312 254.90625 L 67.8125 288.214844 L 16.160156 268.0625 C 18.804688 263.433594 22.066406 259.046875 25.945312 254.90625 Z M 320.945312 232.613281 C 327.402344 234.5625 333.445312 237.496094 339.078125 241.425781 L 339.074219 241.425781 L 305.234375 288.445312 C 304.933594 288.21875 304.621094 288.019531 304.296875 287.84375 L 304.289062 287.84375 L 320.941406 232.613281 Z M 154.96875 286.863281 L 155.765625 289.199219 L 154.238281 289.207031 C 154.484375 288.414062 154.726562 287.632812 154.964844 286.863281 Z M 184.21875 275.640625 C 187.617188 276.003906 190.300781 276.214844 192.269531 276.269531 L 192.265625 276.269531 L 180.195312 289.339844 L 184.214844 275.640625 Z M 136.015625 281.273438 C 136.796875 283.882812 137.417969 286.550781 137.871094 289.285156 L 137.867188 289.285156 L 117.152344 289.382812 L 136.011719 281.273438 Z M 130.109375 267.65625 C 132.355469 271.527344 134.167969 275.566406 135.542969 279.773438 L 135.539062 279.773438 L 113.140625 289.402344 L 101.910156 289.453125 L 130.105469 267.65625 Z M 119.03125 253.351562 C 119.3125 253.617188 119.59375 253.890625 119.871094 254.164062 C 123.550781 258.003906 126.691406 262.046875 129.300781 266.300781 L 129.296875 266.300781 L 99.335938 289.46875 L 87.546875 289.523438 L 119.027344 253.351562 Z M 340.355469 242.332031 C 343.144531 244.375 345.828125 246.664062 348.410156 249.199219 C 350.234375 251.101562 351.925781 253.054688 353.488281 255.058594 L 353.480469 255.058594 L 306.738281 289.941406 C 306.628906 289.796875 306.515625 289.65625 306.394531 289.515625 L 306.390625 289.515625 L 340.347656 242.332031 Z M 247.222656 259.039062 L 289.632812 287.660156 L 289.628906 287.660156 C 290.570312 289.167969 291.59375 290.75 292.695312 292.40625 L 292.691406 292.40625 L 292.34375 292.425781 L 239.582031 274.566406 L 239.578125 274.566406 C 241.390625 269.101562 243.9375 263.925781 247.21875 259.039062 Z M 153.578125 292.167969 C 153.464844 292.265625 153.351562 292.363281 153.242188 292.457031 C 153.269531 292.363281 153.300781 292.265625 153.328125 292.171875 L 153.324219 292.171875 L 153.574219 292.167969 Z M 354.433594 256.304688 C 358.546875 261.839844 361.679688 267.753906 363.832031 274.050781 L 363.824219 274.050781 L 308.105469 292.984375 C 307.984375 292.382812 307.800781 291.8125 307.542969 291.269531 L 307.539062 291.269531 L 354.429688 256.304688 Z M 15.394531 269.445312 L 67.445312 289.75 L 67.441406 289.75 C 67.40625 289.78125 67.375 289.8125 67.339844 289.84375 C 66.132812 291.03125 65.175781 292.320312 64.472656 293.71875 L 9.363281 285.570312 L 9.359375 285.570312 C 10.640625 279.90625 12.652344 274.53125 15.394531 269.445312 Z M 364.316406 275.535156 C 366.167969 281.421875 367.171875 287.636719 367.335938 294.171875 L 367.332031 294.171875 L 308.210938 295.269531 C 308.234375 295.066406 308.246094 294.859375 308.253906 294.648438 C 308.253906 294.621094 308.253906 294.59375 308.253906 294.566406 L 308.25 294.566406 L 364.3125 275.535156 Z M 239.105469 276.058594 L 288.167969 292.664062 L 236.238281 295.632812 C 236.234375 295.402344 236.230469 295.171875 236.230469 294.941406 C 236.332031 288.308594 237.289062 282.015625 239.101562 276.058594 Z M 137.832031 292.242188 C 137.726562 292.796875 137.617188 293.355469 137.507812 293.921875 L 102.242188 295.792969 L 110.207031 292.367188 L 137.828125 292.242188 Z M 106.199219 292.386719 L 97.71875 296.03125 L 93.089844 296.277344 L 98.074219 292.421875 Z M 95.496094 292.433594 L 90.480469 296.3125 C 90.117188 294.953125 89.546875 293.671875 88.769531 292.464844 Z M 137.207031 295.507812 C 136.875 297.222656 136.542969 298.976562 136.199219 300.773438 L 97.585938 297.792969 L 98.082031 297.578125 L 137.203125 295.507812 Z M 9.035156 287.101562 L 63.832031 295.207031 L 63.828125 295.207031 C 63.648438 295.710938 63.492188 296.230469 63.371094 296.761719 L 63.367188 296.761719 L 7.730469 301.949219 C 7.707031 301.269531 7.695312 300.589844 7.691406 299.90625 C 7.757812 295.488281 8.207031 291.222656 9.03125 287.101562 Z M 292.132812 294.007812 L 293.214844 294.371094 L 293.210938 294.371094 C 293.214844 295.324219 293.367188 296.214844 293.667969 297.046875 L 293.664062 297.046875 L 239.355469 315.289062 C 237.53125 309.570312 236.503906 303.539062 236.277344 297.199219 L 236.273438 297.199219 Z M 367.355469 295.738281 C 367.234375 302.9375 366.101562 309.738281 363.960938 316.140625 L 307.660156 297.410156 L 307.65625 297.410156 C 307.734375 297.222656 307.808594 297.035156 307.871094 296.84375 L 307.867188 296.84375 L 367.351562 295.738281 Z M 69.410156 311.714844 C 69.96875 312.074219 70.542969 312.394531 71.132812 312.667969 L 71.128906 312.667969 L 68.867188 316.519531 Z M 63.09375 298.359375 C 63.046875 298.769531 63.015625 299.191406 63 299.617188 C 62.996094 299.953125 63 300.285156 63.015625 300.613281 L 10.210938 318.246094 C 8.878906 313.539062 8.074219 308.628906 7.796875 303.511719 Z M 86.441406 310.265625 L 86.824219 310.445312 L 91.113281 318.601562 L 82.746094 312.707031 L 82.742188 312.707031 C 84.0625 312.109375 85.296875 311.296875 86.441406 310.265625 Z M 90.382812 303.96875 L 134.941406 307.402344 L 134.9375 307.402344 C 134.871094 307.765625 134.800781 308.125 134.730469 308.488281 L 131.164062 308.179688 C 124.207031 316.714844 121.804688 322.835938 123.960938 326.550781 L 87.96875 309.261719 L 87.761719 308.867188 L 87.757812 308.867188 C 88.980469 307.390625 89.855469 305.757812 90.382812 303.96875 Z M 81.703125 313.890625 L 92.714844 321.648438 L 96.546875 328.929688 L 87.21875 328.125 C 84.933594 322.660156 83.09375 317.914062 81.699219 313.890625 Z M 95.527344 323.628906 L 103.96875 329.570312 L 98.402344 329.089844 Z M 89.191406 311.585938 L 128 330.226562 L 127.996094 330.226562 C 128.582031 330.597656 129.222656 330.953125 129.914062 331.300781 C 130.1875 331.441406 130.464844 331.578125 130.75 331.710938 L 130.746094 331.710938 C 130.714844 331.765625 130.6875 331.824219 130.65625 331.878906 L 107.066406 329.839844 L 93.925781 320.582031 Z M 294.363281 298.464844 C 294.386719 298.503906 294.414062 298.542969 294.4375 298.582031 L 294.433594 298.582031 L 248.222656 332.964844 C 244.621094 327.882812 241.832031 322.484375 239.851562 316.777344 L 239.847656 316.777344 L 294.359375 298.464844 Z M 307.519531 298.980469 L 363.449219 317.621094 L 363.445312 317.621094 C 361.3125 323.503906 358.308594 329.046875 354.433594 334.25 Z M 61.425781 302.792969 L 17.652344 334.890625 C 14.636719 330.109375 12.304688 325.058594 10.65625 319.746094 Z M 111.871094 333.222656 L 128.988281 334.699219 L 128.984375 334.699219 C 127.476562 337.109375 125.792969 339.449219 123.9375 341.722656 Z M 295.429688 299.796875 C 295.726562 300.085938 296.035156 300.34375 296.355469 300.578125 L 296.351562 300.578125 L 262.53125 347.667969 C 259.980469 345.753906 257.507812 343.628906 255.117188 341.296875 C 252.9375 339.015625 250.945312 336.660156 249.144531 334.234375 L 249.140625 334.234375 L 295.425781 299.796875 Z M 306.023438 299.8125 L 353.488281 335.496094 L 353.484375 335.496094 C 351.820312 337.632812 350.003906 339.710938 348.039062 341.730469 C 345.46875 344.207031 342.804688 346.445312 340.042969 348.441406 L 305.464844 300.308594 L 305.460938 300.308594 C 305.613281 300.1875 305.765625 300.054688 305.910156 299.917969 C 305.949219 299.882812 305.984375 299.847656 306.019531 299.8125 Z M 63.398438 303.292969 C 63.953125 305.597656 65.09375 307.691406 66.820312 309.574219 C 67.144531 309.902344 67.476562 310.214844 67.816406 310.507812 L 67.8125 310.507812 L 29.695312 349.144531 C 28.640625 348.222656 27.601562 347.261719 26.578125 346.261719 C 23.515625 343.054688 20.824219 339.703125 18.503906 336.210938 L 18.5 336.210938 L 63.394531 303.292969 Z M 100.039062 332.203125 L 108.769531 332.957031 L 122.933594 342.929688 L 122.929688 342.929688 C 121.84375 344.207031 120.699219 345.460938 119.496094 346.695312 C 116.863281 349.238281 114.121094 351.53125 111.28125 353.566406 Z M 296.3125 303.3125 L 279.792969 357.015625 C 274.160156 355.007812 268.828125 352.199219 263.796875 348.59375 L 263.789062 348.59375 Z M 304.175781 301.152344 L 338.765625 349.34375 L 338.761719 349.34375 C 333.894531 352.691406 328.726562 355.304688 323.265625 357.183594 L 304.054688 301.214844 L 304.050781 301.214844 C 304.089844 301.191406 304.132812 301.171875 304.171875 301.152344 Z M 67.703125 312.847656 L 66.921875 319.839844 L 44 358.871094 C 39.40625 356.550781 35.039062 353.652344 30.886719 350.167969 Z M 298.476562 301.632812 C 298.746094 301.71875 299.023438 301.789062 299.308594 301.839844 L 299.304688 301.839844 L 299.871094 360.753906 C 293.351562 360.53125 287.15625 359.453125 281.28125 357.523438 L 281.273438 357.523438 L 298.46875 301.632812 Z M 302.582031 301.75 L 321.78125 357.679688 L 321.773438 357.679688 C 315.457031 359.679688 308.75 360.71875 301.652344 360.792969 C 301.582031 360.792969 301.511719 360.792969 301.445312 360.792969 L 301.441406 360.792969 L 300.875 301.976562 L 300.867188 301.976562 C 301.460938 301.960938 302.03125 301.882812 302.578125 301.75 Z M 85.953125 330.976562 L 86.027344 330.992188 L 98.1875 332.042969 L 109.988281 354.46875 L 109.984375 354.46875 C 105.597656 357.460938 100.972656 359.855469 96.105469 361.65625 Z M 66.492188 323.664062 L 61.878906 364.757812 C 56.113281 363.761719 50.621094 362.03125 45.410156 359.5625 Z M 73.617188 313.535156 C 74.582031 313.769531 75.589844 313.90625 76.636719 313.941406 C 76.683594 313.941406 76.734375 313.941406 76.78125 313.941406 C 77.386719 313.941406 77.976562 313.910156 78.554688 313.84375 L 78.558594 313.84375 C 78.902344 314.855469 79.304688 315.992188 79.769531 317.257812 L 79.765625 317.257812 L 94.628906 362.183594 C 89.347656 363.992188 83.789062 365.113281 77.953125 365.554688 L 73.613281 313.535156 Z M 72.09375 314.125 L 76.390625 365.652344 C 75.304688 365.710938 74.214844 365.746094 73.109375 365.757812 C 69.804688 365.722656 66.574219 365.472656 63.429688 365.007812 L 68.441406 320.34375 Z M 227.675781 1.355469 C 221.96875 1.355469 216.789062 2.367188 212.136719 4.390625 C 208.910156 5.570312 203.109375 9.328125 194.734375 15.667969 C 198.882812 16.75 202.773438 17.761719 206.417969 18.699219 L 196.394531 16.378906 L 196.390625 16.378906 C 197.480469 21.683594 198.546875 25.332031 199.582031 27.324219 C 200.714844 29.609375 202.132812 30.929688 203.839844 31.273438 C 204.332031 31.390625 204.875 31.445312 205.460938 31.445312 C 205.566406 31.445312 205.671875 31.445312 205.78125 31.441406 L 205.785156 31.441406 C 205.6875 31.675781 205.589844 31.914062 205.5 32.160156 C 204.152344 35.910156 203.320312 40.449219 203 45.773438 L 202.996094 45.773438 C 201.363281 46.253906 199.609375 46.945312 197.730469 47.847656 C 196.878906 48.09375 190.433594 51.429688 178.390625 57.863281 L 163.816406 64.882812 C 161.253906 66.191406 158.925781 67.480469 156.832031 68.75 C 149.933594 72.90625 141.328125 79.335938 131.015625 88.042969 C 123.988281 93.480469 118.015625 100.136719 113.097656 108.019531 C 107.574219 115.527344 103.617188 122.886719 101.226562 130.089844 L 101.394531 130.113281 L 101.390625 130.113281 C 98.414062 136.976562 96.585938 142.1875 95.902344 145.746094 C 94.855469 150.613281 95.148438 154.636719 96.777344 157.828125 C 98.054688 160.449219 100.035156 162.785156 102.71875 164.835938 C 104.128906 165.910156 105.652344 166.855469 107.289062 167.667969 C 111.863281 169.417969 114.699219 170.617188 115.800781 171.257812 L 115.796875 171.257812 C 115.746094 171.699219 115.785156 172.164062 115.914062 172.65625 L 129.082031 211.171875 L 111.863281 238.101562 C 100.527344 230.984375 87.835938 227.308594 73.785156 227.066406 L 73.675781 227.066406 C 53.347656 227.320312 36.058594 234.351562 21.804688 248.160156 C 7.671875 262.484375 0.410156 279.699219 0.0234375 299.796875 C 0.183594 319.910156 7.230469 337.203125 21.160156 351.679688 C 35.644531 365.84375 52.847656 373.089844 72.777344 373.417969 C 93.105469 373.179688 110.402344 366.160156 124.667969 352.359375 C 129.859375 347.105469 134.121094 341.460938 137.460938 335.429688 L 137.464844 335.429688 L 140.140625 335.660156 L 140.136719 335.660156 C 145.886719 338.730469 149.617188 340.628906 151.335938 341.351562 C 152.625 341.9375 153.90625 342.488281 155.179688 343.007812 L 155.175781 343.007812 L 154.140625 346.96875 L 165.625 348.726562 L 165.875 346.644531 L 165.878906 346.644531 C 165.972656 346.671875 166.070312 346.695312 166.164062 346.71875 C 170.277344 347.8125 173.761719 348.355469 176.617188 348.355469 C 177.59375 348.355469 178.496094 348.292969 179.324219 348.167969 C 182.859375 347.53125 184.570312 346.058594 184.445312 343.746094 C 184.203125 341.480469 181.785156 338.808594 177.195312 335.726562 C 175.386719 334.445312 172.703125 332.796875 169.144531 330.777344 L 169.140625 330.777344 C 173.488281 330.464844 177.488281 328.894531 181.140625 326.070312 C 185.789062 322.242188 188.480469 317.363281 189.214844 311.429688 C 189.789062 305.429688 188.242188 300.078125 184.570312 295.371094 C 184.445312 295.21875 184.316406 295.070312 184.1875 294.917969 L 184.183594 294.917969 L 202.863281 274.699219 L 202.859375 274.699219 C 203.578125 274.316406 204.183594 273.863281 204.675781 273.339844 C 205.113281 272.789062 205.449219 272.222656 205.6875 271.644531 L 205.683594 271.644531 L 260.195312 212.632812 L 260.199219 212.632812 C 262.246094 219.597656 264.144531 225.882812 265.898438 231.484375 L 265.890625 231.484375 C 260.359375 234.609375 255.179688 238.511719 250.34375 243.195312 C 236.210938 257.519531 228.953125 274.734375 228.5625 294.832031 C 228.722656 314.945312 235.769531 332.238281 249.699219 346.714844 C 264.183594 360.878906 281.386719 368.125 301.316406 368.453125 C 321.644531 368.214844 338.941406 361.195312 353.207031 347.394531 C 367.351562 333.074219 374.625 315.867188 375.023438 295.769531 C 374.878906 275.65625 367.84375 258.359375 353.925781 243.875 C 339.453125 229.703125 322.253906 222.445312 302.324219 222.101562 L 302.214844 222.097656 C 291.257812 222.238281 281.179688 224.34375 271.984375 228.421875 C 269.964844 221.941406 267.777344 214.652344 265.421875 206.5625 L 265.414062 206.5625 C 266.183594 204.664062 265.78125 203.273438 264.214844 202.390625 L 264.210938 202.390625 C 261.941406 194.519531 259.519531 185.933594 256.953125 176.636719 L 256.949219 176.636719 L 278.78125 173.566406 L 278.789062 173.566406 C 280.96875 176.171875 283.527344 179.265625 286.457031 182.84375 C 288.46875 185.085938 290.195312 186.714844 291.632812 187.738281 C 292.039062 188.09375 292.472656 188.40625 292.925781 188.679688 L 292.917969 188.679688 C 291.230469 190.746094 289.765625 192.34375 288.527344 193.46875 C 286.273438 195.660156 283.914062 197.425781 281.453125 198.761719 C 279.367188 199.964844 276.027344 201.226562 271.429688 202.550781 C 270.964844 202.75 270.566406 203.042969 270.234375 203.421875 C 269.347656 204.566406 269.164062 205.753906 269.6875 206.988281 C 270.351562 208.277344 271.359375 208.945312 272.707031 208.992188 C 282.445312 207.039062 290.519531 202.140625 296.933594 194.304688 C 298.054688 193.03125 299.308594 191.480469 300.699219 189.65625 L 300.695312 189.65625 C 302.316406 189.339844 304.078125 188.765625 305.976562 187.9375 C 313.609375 185.019531 317.421875 181.589844 317.417969 177.65625 L 317.421875 177.632812 C 317.417969 175.34375 316.402344 172.6875 314.371094 169.667969 L 314.367188 169.667969 C 314.625 169.265625 314.882812 168.859375 315.144531 168.449219 L 315.140625 168.449219 L 315.382812 168.414062 C 317.125 167.84375 317.96875 166.640625 317.914062 164.800781 C 317.605469 163.007812 316.523438 162.007812 314.671875 161.796875 L 314.597656 161.792969 C 314.589844 161.792969 314.582031 161.792969 314.574219 161.792969 C 314.410156 161.792969 314.242188 161.804688 314.078125 161.832031 L 314.007812 161.839844 C 313.808594 161.796875 313.601562 161.769531 313.386719 161.757812 L 313.320312 161.757812 C 313.3125 161.757812 313.300781 161.757812 313.289062 161.757812 C 312.710938 161.757812 312.179688 161.894531 311.691406 162.167969 L 311.6875 162.167969 L 308.144531 162.664062 C 307.789062 162.375 307.4375 162.109375 307.09375 161.875 C 306.453125 161.425781 305.78125 161.027344 305.078125 160.671875 C 301.140625 159.042969 298.601562 157.808594 297.464844 156.976562 C 295.074219 155.449219 292.828125 153.605469 290.726562 151.441406 C 288.890625 149.558594 287.171875 147.4375 285.566406 145.078125 L 275.910156 129.480469 C 274.296875 126.984375 272.785156 124.875 271.375 123.15625 C 268.070312 118.996094 262.988281 114.191406 256.121094 108.746094 L 254.210938 109.410156 L 256.175781 108.289062 C 249.246094 101.082031 244.632812 95.257812 242.332031 90.8125 C 239.832031 86.464844 237.394531 79.363281 235.015625 69.511719 L 234.972656 69.335938 L 234.382812 68.671875 L 237.824219 65.59375 C 239.882812 65.878906 241.675781 66.023438 243.203125 66.023438 C 245.964844 66.023438 247.855469 65.558594 248.882812 64.625 C 249.535156 64.058594 249.875 63.394531 249.914062 62.628906 C 250.007812 62.070312 249.84375 60.789062 249.421875 58.785156 C 249.390625 58.554688 249.402344 58.328125 249.457031 58.097656 C 249.507812 57.929688 249.585938 57.78125 249.691406 57.648438 C 250.5 56.84375 251.136719 56.042969 251.605469 55.246094 C 252.117188 54.398438 252.445312 53.605469 252.589844 52.859375 C 252.679688 52.3125 252.648438 51.832031 252.484375 51.414062 C 252.367188 51.03125 252.027344 50.464844 251.464844 49.71875 C 251.433594 49.671875 251.429688 49.625 251.460938 49.570312 L 251.464844 49.570312 C 253.433594 49.929688 254.707031 50.109375 255.28125 50.109375 C 255.410156 50.109375 255.507812 50.097656 255.566406 50.082031 C 256.496094 49.996094 257.085938 49.667969 257.335938 49.101562 C 257.550781 48.601562 257.449219 47.972656 257.027344 47.21875 L 256.34375 46.230469 L 253.929688 43.335938 L 252.816406 41.8125 C 252.066406 40.679688 251.582031 39.613281 251.363281 38.621094 C 250.808594 36.578125 251.179688 33.429688 252.480469 29.167969 L 252.484375 29.167969 C 255.535156 29.632812 258.558594 30.023438 261.550781 30.335938 C 259.660156 24.410156 257.574219 19.816406 255.289062 16.550781 L 255.277344 16.539062 C 247.921875 6.441406 238.769531 1.378906 227.824219 1.355469 C 227.773438 1.355469 227.726562 1.355469 227.675781 1.355469 Z M 227.675781 1.355469 " fill-opacity="1" fill-rule="nonzero"/></g></svg>