<svg width="1406" height="177" viewBox="0 0 1406 177" fill="none" xmlns="http://www.w3.org/2000/svg">
<path d="M1.5 125L30.5 116.5H42.5L87 95C91 94.5 100.4 92.4 106 88C111.6 83.6 120.667 68.8333 124.5 62L144.5 49.5L171.5 43L197 32L201 22.5L216.5 3L240.5 7L276 19L282 22.5H331.5L343.5 19L356 22.5L423 25.5L523 28.5L617 32L621.5 43L633 49.5H652L669.5 57L678.5 62L695 65.5L702 83.5L741.5 103L772 121.5L837.5 134.5L846.5 138H891L913 125L959 106L963 96H971.5L979 89L1000.5 80.5L1017.5 103L1066.5 125L1071 129H1097L1111 125H1122.5L1161 112.5H1176L1279.5 159.5L1313 169H1361.5L1405.5 174" stroke="black" stroke-width="5"/>
</svg>
